<svg xmlns="http://www.w3.org/2000/svg" width="19.67" height="19.67" viewBox="0 0 19.67 19.67">
  <path id="plus-circle-solid" d="M17.835,8a9.835,9.835,0,1,0,9.835,9.835A9.833,9.833,0,0,0,17.835,8Zm5.711,10.945a.477.477,0,0,1-.476.476H19.421V23.07a.477.477,0,0,1-.476.476H16.725a.477.477,0,0,1-.476-.476V19.421H12.6a.477.477,0,0,1-.476-.476V16.725a.477.477,0,0,1,.476-.476h3.648V12.6a.477.477,0,0,1,.476-.476h2.221a.477.477,0,0,1,.476.476v3.648H23.07a.477.477,0,0,1,.476.476Z" transform="translate(-8 -8)" fill="#ff4f11"/>
</svg>
