<svg xmlns="http://www.w3.org/2000/svg" width="69.926" height="50.789" viewBox="0 0 69.926 50.789">
  <g id="agreement" transform="translate(0 -70.061)">
    <g id="Grupo_53" data-name="Grupo 53" transform="translate(21.449 70.119)">
      <g id="Grupo_52" data-name="Grupo 52">
        <path id="Trazado_23" data-name="Trazado 23" d="M194.822,77.166a1.445,1.445,0,0,1-.728.335c-5.856.892-10.078-.5-13.464-1.617a18.691,18.691,0,0,0-5.693-1.279c-3.062,0-5.434,1.559-7.727,3.065-.533.35-1.052.691-1.565,1l-7.593,7.593a3.41,3.41,0,0,0,2.41,5.821h1.165a3.377,3.377,0,0,0,2.147-.758c.557-.455,1.2-.988,1.882-1.562,3.732-3.12,6.748-5.571,8.767-6.328a1.426,1.426,0,0,1,.513-.093,1.453,1.453,0,0,1,.953.356l21.056,18.248,8.583-3.4V70.488Z" transform="translate(-157.053 -70.488)" fill="#fff"/>
      </g>
    </g>
    <g id="Grupo_55" data-name="Grupo 55" transform="translate(8.741 100.458)">
      <g id="Grupo_54" data-name="Grupo 54">
        <path id="Trazado_24" data-name="Trazado 24" d="M68.437,292.632a2.843,2.843,0,0,0-2.369,1.267l-1.591,2.386A2.842,2.842,0,0,0,64,297.865v.661a2.847,2.847,0,0,0,5.215,1.579l1.591-2.386a2.842,2.842,0,0,0,.478-1.579v-.661A2.845,2.845,0,0,0,68.437,292.632Z" transform="translate(-64 -292.632)" fill="#fff"/>
      </g>
    </g>
    <g id="Grupo_57" data-name="Grupo 57" transform="translate(13.111 103.372)">
      <g id="Grupo_56" data-name="Grupo 56">
        <path id="Trazado_25" data-name="Trazado 25" d="M101.894,313.965h-.1a2.85,2.85,0,0,0-2.278,1.139l-2.946,3.93A2.839,2.839,0,0,0,96,320.742v.574a2.845,2.845,0,0,0,2.847,2.847h.1a2.85,2.85,0,0,0,2.278-1.139l2.946-3.93a2.839,2.839,0,0,0,.571-1.707v-.574A2.845,2.845,0,0,0,101.894,313.965Z" transform="translate(-96 -313.965)" fill="#fff"/>
      </g>
    </g>
    <g id="Grupo_59" data-name="Grupo 59" transform="translate(18.938 106.285)">
      <g id="Grupo_58" data-name="Grupo 58">
        <path id="Trazado_26" data-name="Trazado 26" d="M144.561,335.3h-.1a2.849,2.849,0,0,0-2.278,1.139l-2.946,3.93a2.839,2.839,0,0,0-.571,1.707v.574a2.845,2.845,0,0,0,2.847,2.847h.1a2.849,2.849,0,0,0,2.278-1.139l2.946-3.93a2.839,2.839,0,0,0,.571-1.707v-.574A2.845,2.845,0,0,0,144.561,335.3Z" transform="translate(-138.667 -335.299)" fill="#fff"/>
      </g>
    </g>
    <g id="Grupo_61" data-name="Grupo 61" transform="translate(24.765 109.199)">
      <g id="Grupo_60" data-name="Grupo 60">
        <path id="Trazado_27" data-name="Trazado 27" d="M187.228,356.632h-.1a2.85,2.85,0,0,0-2.278,1.139L181.9,361.7a2.839,2.839,0,0,0-.571,1.707v.574a2.845,2.845,0,0,0,2.847,2.847h.1a2.849,2.849,0,0,0,2.278-1.139l2.946-3.93a2.842,2.842,0,0,0,.568-1.707v-.574h0A2.845,2.845,0,0,0,187.228,356.632Z" transform="translate(-181.334 -356.632)" fill="#fff"/>
      </g>
    </g>
    <g id="Grupo_63" data-name="Grupo 63" transform="translate(33.392 115.647)">
      <g id="Grupo_62" data-name="Grupo 62">
        <path id="Trazado_28" data-name="Trazado 28" d="M249.236,406.089l-2.637-2.246c-.087.137-.128.3-.224.431l-1.873,2.5,1.961,1.818a1.469,1.469,0,0,0,2.095.035C249.282,407.9,249.571,406.509,249.236,406.089Z" transform="translate(-244.501 -403.843)" fill="#fff"/>
      </g>
    </g>
    <g id="Grupo_65" data-name="Grupo 65" transform="translate(0 70.061)">
      <g id="Grupo_64" data-name="Grupo 64">
        <path id="Trazado_29" data-name="Trazado 29" d="M60.308,104.732,39.091,86.156a61.876,61.876,0,0,0-7.167,5.475c-.693.583-1.343,1.125-1.908,1.585a6.235,6.235,0,0,1-3.989,1.416H24.862a6.325,6.325,0,0,1-4.472-10.795l8.135-8.021c.417-.253.839-.53,1.267-.81a43.808,43.808,0,0,0-15.561-.085,10.2,10.2,0,0,1-8.161-2.229L0,70.061V98.174l7.575,3.15.81-1.215a5.733,5.733,0,0,1,9.816.434,5.13,5.13,0,0,1,.7-.085,5.818,5.818,0,0,1,5.119,3,5.326,5.326,0,0,1,.708-.085,5.818,5.818,0,0,1,5.119,3,5.736,5.736,0,0,1,.708-.085h.1a5.767,5.767,0,0,1,5.76,5.76v.568l3.656,3.109c0,.006.009.009.015.015l1.393,1.183a4.775,4.775,0,0,0,2.951,1.02,2.181,2.181,0,0,0,1.4-3.858l-13.26-11.048a1.456,1.456,0,1,1,1.868-2.235l16.38,13.65a2.514,2.514,0,0,0,1.6.577h.428a2.512,2.512,0,0,0,1.658-4.394L38.4,97.209a1.458,1.458,0,0,1,1.868-2.241l16.057,13.379c.026.02.052.044.076.064l.239.2a2.525,2.525,0,0,0,1.623.589h.39a2.544,2.544,0,0,0,1.657-4.466Z" transform="translate(0 -70.061)" fill="#fff"/>
      </g>
    </g>
  </g>
</svg>
