<svg xmlns="http://www.w3.org/2000/svg" width="71.926" height="71.93" viewBox="0 0 71.926 71.93">
  <g id="bullhorn" transform="translate(-0.016)">
    <g id="Grupo_68" data-name="Grupo 68" transform="translate(0.016 17.752)">
      <g id="Grupo_67" data-name="Grupo 67">
        <path id="Trazado_30" data-name="Trazado 30" d="M35.979,153.8V126.368c-.778.072-1.546.193-2.329.229h-22.4a2.248,2.248,0,0,0-2.248,2.248v2.248H2.264A2.249,2.249,0,0,0,.016,133.34v13.486a2.249,2.249,0,0,0,2.248,2.248H9.007v2.248a2.248,2.248,0,0,0,2.248,2.248h1.362l9.036,24.086a4.471,4.471,0,0,0,3.309,2.8,4.4,4.4,0,0,0,4.059-1.236l5.4-5.354a4.485,4.485,0,0,0,.827-5.2L27.7,153.569h5.97C34.446,153.605,35.21,153.727,35.979,153.8Z" transform="translate(-0.016 -126.368)" fill="#fff"/>
      </g>
    </g>
    <g id="Grupo_70" data-name="Grupo 70" transform="translate(40.474)">
      <g id="Grupo_69" data-name="Grupo 69">
        <path id="Trazado_31" data-name="Trazado 31" d="M319.115,1.088a1.594,1.594,0,0,0-.144-.211,2.221,2.221,0,0,0-.94-.719c-.013,0-.023-.022-.036-.027-.045-.013-.085.009-.13,0A2.236,2.236,0,0,0,317.236,0a2.091,2.091,0,0,0-.436.09,2.487,2.487,0,0,0-.252.049,2.231,2.231,0,0,0-.985.638c-.018.018-.045.022-.063.04A47.3,47.3,0,0,1,288.016,17.1v28.73A47.3,47.3,0,0,1,315.5,62.117c.018.022.049.031.072.058a2.181,2.181,0,0,0,.557.432c.067.04.121.1.189.13a2.313,2.313,0,0,0,.917.2,2.348,2.348,0,0,0,.76-.13c.013,0,.022-.022.036-.027a2.186,2.186,0,0,0,.94-.719c.054-.072.094-.135.144-.211a2.176,2.176,0,0,0,.369-1.16V2.248A2.176,2.176,0,0,0,319.115,1.088Z" transform="translate(-288.016)" fill="#fff"/>
      </g>
    </g>
  </g>
</svg>
