<svg id="dashboard" xmlns="http://www.w3.org/2000/svg" width="64.627" height="64.627" viewBox="0 0 64.627 64.627">
  <path id="Trazado_13" data-name="Trazado 13" d="M24.908,0H4.712A4.717,4.717,0,0,0,0,4.712V16.83a4.718,4.718,0,0,0,4.712,4.713h20.2a4.718,4.718,0,0,0,4.713-4.713V4.712A4.718,4.718,0,0,0,24.908,0Zm0,0" fill="#fff"/>
  <path id="Trazado_14" data-name="Trazado 14" d="M24.908,213.332H4.712A4.717,4.717,0,0,0,0,218.045v28.274a4.717,4.717,0,0,0,4.712,4.712h20.2a4.717,4.717,0,0,0,4.713-4.712V218.045A4.718,4.718,0,0,0,24.908,213.332Zm0,0" transform="translate(0 -186.404)" fill="#fff"/>
  <path id="Trazado_15" data-name="Trazado 15" d="M302.241,341.332h-20.2a4.718,4.718,0,0,0-4.713,4.713v12.118a4.718,4.718,0,0,0,4.713,4.712h20.2a4.717,4.717,0,0,0,4.712-4.712V346.045A4.717,4.717,0,0,0,302.241,341.332Zm0,0" transform="translate(-242.326 -298.247)" fill="#fff"/>
  <path id="Trazado_16" data-name="Trazado 16" d="M302.241,0h-20.2a4.718,4.718,0,0,0-4.713,4.712V32.987a4.718,4.718,0,0,0,4.713,4.713h20.2a4.717,4.717,0,0,0,4.712-4.713V4.712A4.717,4.717,0,0,0,302.241,0Zm0,0" transform="translate(-242.326)" fill="#fff"/>
</svg>
