<svg xmlns="http://www.w3.org/2000/svg" width="17.555" height="20.063" viewBox="0 0 17.555 20.063">
  <g id="Grupo_2217" data-name="Grupo 2217" transform="translate(-1583 -213)">
    <path id="trash-solid" d="M16.928,1.254h-4.7L11.858.521A.94.94,0,0,0,11.015,0H6.536A.929.929,0,0,0,5.7.521l-.368.733H.627A.627.627,0,0,0,0,1.881V3.135a.627.627,0,0,0,.627.627h16.3a.627.627,0,0,0,.627-.627V1.881A.627.627,0,0,0,16.928,1.254ZM2.085,18.3a1.881,1.881,0,0,0,1.877,1.763h9.632A1.881,1.881,0,0,0,15.471,18.3L16.3,5.016H1.254Z" transform="translate(1583 213)" fill="#c0392b"/>
  </g>
</svg>
