<?xml version="1.0"?>
<svg xmlns="http://www.w3.org/2000/svg" xmlns:xlink="http://www.w3.org/1999/xlink" xmlns:svgjs="http://svgjs.com/svgjs" version="1.1" width="512" height="512" x="0" y="0" viewBox="0 0 682 682.66669" style="enable-background:new 0 0 512 512" xml:space="preserve" class=""><g><path xmlns="http://www.w3.org/2000/svg" d="m570.921875 408.664062-207.78125 231.335938-135.101563-128.601562 34.429688-36.167969 97.871094 93.164062 173.433594-193.101562zm-333.550781 180.550782 52.457031 49.933594h-216.84375c-41.300781 0-74.902344-33.597657-74.902344-74.898438v-489.347656c0-41.304688 33.601563-74.902344 74.902344-74.902344h254.355469l177.429687 178.335938v157.09375l-49.796875 54.722656v-176.550782h-88.769531c-41.296875 0-74.902344-33.597656-74.902344-74.894531v-88.777343h-218.316406c-13.769531 0-24.96875 11.203124-24.96875 24.972656v489.347656c0 13.765625 11.199219 24.964844 24.96875 24.964844zm128.832031-425.542969h53.648437l-78.613281-78.941406v53.976562c0 13.761719 11.199219 24.964844 24.964844 24.964844zm-268.25 259.515625h195.984375v-49.9375h-195.984375zm307.089844-149.796875h-307.089844v49.929687h307.089844zm0 0" fill="#1c313a" data-original="#000000" style="" class=""/></g></svg>
