<svg id="gps" xmlns="http://www.w3.org/2000/svg" width="68.092" height="68.092" viewBox="0 0 68.092 68.092">
  <g id="Grupo_156" data-name="Grupo 156">
    <g id="Grupo_155" data-name="Grupo 155">
      <path id="Trazado_58" data-name="Trazado 58" d="M58.118,44.02H55.755a5.949,5.949,0,0,0-11.234,0H40.164a3.99,3.99,0,1,1,0-7.98H54.128a2.237,2.237,0,0,0,1.6-.8l9.581-12.9a13.965,13.965,0,1,0-22.353,0l7.188,9.716H40.164a7.98,7.98,0,1,0,0,15.959h4.357a5.949,5.949,0,0,0,11.234,0h2.362A5.991,5.991,0,0,1,64.1,53.995a6.106,6.106,0,0,1-5.985,6.118H43.786a5.949,5.949,0,0,0-11.234,0h-14.6L25.141,50.4A13.965,13.965,0,1,0,0,42.026,13.84,13.84,0,0,0,2.788,50.4c.232.31,9.625,13.02,9.922,13.263a2.015,2.015,0,0,0,1.253.442H32.552a5.949,5.949,0,0,0,11.234,0H58.118a10.1,10.1,0,0,0,9.974-10.107A9.986,9.986,0,0,0,58.118,44.02ZM48.143,13.964a5.985,5.985,0,1,1,5.985,5.985A5.991,5.991,0,0,1,48.143,13.964ZM13.964,48.01a5.985,5.985,0,1,1,5.985-5.985A5.991,5.991,0,0,1,13.964,48.01Z" fill="#fff"/>
    </g>
  </g>
  <g id="Grupo_158" data-name="Grupo 158" transform="translate(52.133 11.969)">
    <g id="Grupo_157" data-name="Grupo 157">
      <path id="Trazado_59" data-name="Trazado 59" d="M393.995,90a1.995,1.995,0,1,0,1.995,1.995A2,2,0,0,0,393.995,90Z" transform="translate(-392 -90)" fill="#fff"/>
    </g>
  </g>
  <g id="Grupo_160" data-name="Grupo 160" transform="translate(11.969 40.031)">
    <g id="Grupo_159" data-name="Grupo 159">
      <path id="Trazado_60" data-name="Trazado 60" d="M91.995,301a1.995,1.995,0,1,0,1.995,1.995A2,2,0,0,0,91.995,301Z" transform="translate(-90 -301)" fill="#fff"/>
    </g>
  </g>
</svg>
