<svg xmlns="http://www.w3.org/2000/svg" width="73.64" height="62.467" viewBox="0 0 73.64 62.467">
  <g id="team" transform="translate(0 -38.84)">
    <g id="Grupo_166" data-name="Grupo 166" transform="translate(57.315 72.565)">
      <g id="Grupo_165" data-name="Grupo 165">
        <path id="Trazado_63" data-name="Trazado 63" d="M404.189,273.32h-5.7a14.812,14.812,0,0,1,.9,5.092v21.524a6.347,6.347,0,0,1-.366,2.126h9.415a6.385,6.385,0,0,0,6.378-6.378V283.95A10.642,10.642,0,0,0,404.189,273.32Z" transform="translate(-398.494 -273.32)" fill="#fff"/>
      </g>
    </g>
    <g id="Grupo_168" data-name="Grupo 168" transform="translate(0 72.565)">
      <g id="Grupo_167" data-name="Grupo 167" transform="translate(0 0)">
        <path id="Trazado_64" data-name="Trazado 64" d="M15.428,278.413a14.813,14.813,0,0,1,.9-5.092h-5.7A10.642,10.642,0,0,0,0,283.951v11.734a6.385,6.385,0,0,0,6.378,6.378h9.415a6.349,6.349,0,0,1-.366-2.126Z" transform="translate(0 -273.321)" fill="#fff"/>
      </g>
    </g>
    <g id="Grupo_170" data-name="Grupo 170" transform="translate(19.68 67.027)">
      <g id="Grupo_169" data-name="Grupo 169">
        <path id="Trazado_65" data-name="Trazado 65" d="M160.479,234.815h-13.02a10.642,10.642,0,0,0-10.63,10.63v21.524a2.126,2.126,0,0,0,2.126,2.126h30.028a2.126,2.126,0,0,0,2.126-2.126V245.445A10.642,10.642,0,0,0,160.479,234.815Z" transform="translate(-136.829 -234.815)" fill="#fff"/>
      </g>
    </g>
    <g id="Grupo_172" data-name="Grupo 172" transform="translate(24.036 38.84)">
      <g id="Grupo_171" data-name="Grupo 171" transform="translate(0 0)">
        <path id="Trazado_66" data-name="Trazado 66" d="M179.9,38.84a12.782,12.782,0,1,0,12.784,12.785A12.8,12.8,0,0,0,179.9,38.84Z" transform="translate(-167.114 -38.84)" fill="#fff"/>
      </g>
    </g>
    <g id="Grupo_174" data-name="Grupo 174" transform="translate(4.81 50.756)">
      <g id="Grupo_173" data-name="Grupo 173" transform="translate(0 0)">
        <path id="Trazado_67" data-name="Trazado 67" d="M43,121.689a9.556,9.556,0,1,0,9.561,9.561A9.572,9.572,0,0,0,43,121.689Z" transform="translate(-33.443 -121.689)" fill="#fff"/>
      </g>
    </g>
    <g id="Grupo_176" data-name="Grupo 176" transform="translate(49.708 50.756)">
      <g id="Grupo_175" data-name="Grupo 175" transform="translate(0 0)">
        <path id="Trazado_68" data-name="Trazado 68" d="M355.168,121.689a9.561,9.561,0,1,0,9.561,9.561A9.572,9.572,0,0,0,355.168,121.689Z" transform="translate(-345.607 -121.689)" fill="#fff"/>
      </g>
    </g>
  </g>
</svg>
