<svg xmlns="http://www.w3.org/2000/svg" xmlns:xlink="http://www.w3.org/1999/xlink" width="25.972" height="25.972" viewBox="0 0 25.972 25.972">
  <defs>
    <linearGradient id="linear-gradient" x1="0.5" x2="0.5" y2="1" gradientUnits="objectBoundingBox">
      <stop offset="0" stop-color="#ff5023"/>
      <stop offset="1" stop-color="#ff4e00"/>
    </linearGradient>
  </defs>
  <path id="user-circle-solid" d="M12.986,8A12.986,12.986,0,1,0,25.972,20.986,12.984,12.984,0,0,0,12.986,8Zm0,5.027a4.608,4.608,0,1,1-4.608,4.608A4.608,4.608,0,0,1,12.986,13.027Zm0,18.013a10.034,10.034,0,0,1-7.671-3.571,5.838,5.838,0,0,1,5.158-3.131,1.281,1.281,0,0,1,.372.058,6.933,6.933,0,0,0,2.142.361,6.907,6.907,0,0,0,2.142-.361,1.281,1.281,0,0,1,.372-.058,5.838,5.838,0,0,1,5.158,3.131A10.034,10.034,0,0,1,12.986,31.04Z" transform="translate(0 -8)" fill="url(#linear-gradient)"/>
</svg>
